<mxfile host="app.diagrams.net" modified="2023-11-21T07:04:27.183Z" agent="Mozilla/5.0 (Windows NT 10.0; Win64; x64) AppleWebKit/537.36 (KHTML, like Gecko) Chrome/95.0.4638.69 Safari/537.36" etag="9ahQLQWhO8476_ouurb0" version="22.1.3" type="github">
  <diagram id="R2lEEEUBdFMjLlhIrx00" name="Page-1">
    <mxGraphModel dx="2049" dy="1000" grid="1" gridSize="10" guides="1" tooltips="1" connect="1" arrows="1" fold="1" page="1" pageScale="1" pageWidth="850" pageHeight="1100" math="0" shadow="0" extFonts="Permanent Marker^https://fonts.googleapis.com/css?family=Permanent+Marker">
      <root>
        <mxCell id="0" />
        <mxCell id="1" parent="0" />
        <mxCell id="C-vyLk0tnHw3VtMMgP7b-23" value="供应商" style="shape=table;startSize=30;container=1;collapsible=1;childLayout=tableLayout;fixedRows=1;rowLines=0;fontStyle=1;align=center;resizeLast=1;fontSize=20;" parent="1" vertex="1">
          <mxGeometry x="120" y="120" width="250" height="170" as="geometry" />
        </mxCell>
        <mxCell id="C-vyLk0tnHw3VtMMgP7b-24" value="" style="shape=partialRectangle;collapsible=0;dropTarget=0;pointerEvents=0;fillColor=none;points=[[0,0.5],[1,0.5]];portConstraint=eastwest;top=0;left=0;right=0;bottom=1;fontSize=20;" parent="C-vyLk0tnHw3VtMMgP7b-23" vertex="1">
          <mxGeometry y="30" width="250" height="30" as="geometry" />
        </mxCell>
        <mxCell id="C-vyLk0tnHw3VtMMgP7b-25" value="PK" style="shape=partialRectangle;overflow=hidden;connectable=0;fillColor=none;top=0;left=0;bottom=0;right=0;fontStyle=1;fontSize=20;" parent="C-vyLk0tnHw3VtMMgP7b-24" vertex="1">
          <mxGeometry width="30" height="30" as="geometry">
            <mxRectangle width="30" height="30" as="alternateBounds" />
          </mxGeometry>
        </mxCell>
        <mxCell id="C-vyLk0tnHw3VtMMgP7b-26" value="供应商编号" style="shape=partialRectangle;overflow=hidden;connectable=0;fillColor=none;top=0;left=0;bottom=0;right=0;align=left;spacingLeft=6;fontStyle=5;fontSize=20;" parent="C-vyLk0tnHw3VtMMgP7b-24" vertex="1">
          <mxGeometry x="30" width="220" height="30" as="geometry">
            <mxRectangle width="220" height="30" as="alternateBounds" />
          </mxGeometry>
        </mxCell>
        <mxCell id="C-vyLk0tnHw3VtMMgP7b-27" value="" style="shape=partialRectangle;collapsible=0;dropTarget=0;pointerEvents=0;fillColor=none;points=[[0,0.5],[1,0.5]];portConstraint=eastwest;top=0;left=0;right=0;bottom=0;fontSize=20;" parent="C-vyLk0tnHw3VtMMgP7b-23" vertex="1">
          <mxGeometry y="60" width="250" height="110" as="geometry" />
        </mxCell>
        <mxCell id="C-vyLk0tnHw3VtMMgP7b-28" value="" style="shape=partialRectangle;overflow=hidden;connectable=0;fillColor=none;top=0;left=0;bottom=0;right=0;fontSize=20;" parent="C-vyLk0tnHw3VtMMgP7b-27" vertex="1">
          <mxGeometry width="30" height="110" as="geometry">
            <mxRectangle width="30" height="110" as="alternateBounds" />
          </mxGeometry>
        </mxCell>
        <mxCell id="C-vyLk0tnHw3VtMMgP7b-29" value="名称&#xa;地址&#xa;联系方式&#xa;供货能力" style="shape=partialRectangle;overflow=hidden;connectable=0;fillColor=none;top=0;left=0;bottom=0;right=0;align=left;spacingLeft=6;fontSize=20;" parent="C-vyLk0tnHw3VtMMgP7b-27" vertex="1">
          <mxGeometry x="30" width="220" height="110" as="geometry">
            <mxRectangle width="220" height="110" as="alternateBounds" />
          </mxGeometry>
        </mxCell>
        <mxCell id="wIJLVU86LyKN5zqBMjgO-1" value="产品" style="shape=table;startSize=30;container=1;collapsible=1;childLayout=tableLayout;fixedRows=1;rowLines=0;fontStyle=1;align=center;resizeLast=1;fontSize=20;" vertex="1" parent="1">
          <mxGeometry x="620" y="120" width="250" height="170" as="geometry" />
        </mxCell>
        <mxCell id="wIJLVU86LyKN5zqBMjgO-2" value="" style="shape=partialRectangle;collapsible=0;dropTarget=0;pointerEvents=0;fillColor=none;points=[[0,0.5],[1,0.5]];portConstraint=eastwest;top=0;left=0;right=0;bottom=1;fontSize=20;" vertex="1" parent="wIJLVU86LyKN5zqBMjgO-1">
          <mxGeometry y="30" width="250" height="30" as="geometry" />
        </mxCell>
        <mxCell id="wIJLVU86LyKN5zqBMjgO-3" value="PK" style="shape=partialRectangle;overflow=hidden;connectable=0;fillColor=none;top=0;left=0;bottom=0;right=0;fontStyle=1;fontSize=20;" vertex="1" parent="wIJLVU86LyKN5zqBMjgO-2">
          <mxGeometry width="30" height="30" as="geometry">
            <mxRectangle width="30" height="30" as="alternateBounds" />
          </mxGeometry>
        </mxCell>
        <mxCell id="wIJLVU86LyKN5zqBMjgO-4" value="产品编号" style="shape=partialRectangle;overflow=hidden;connectable=0;fillColor=none;top=0;left=0;bottom=0;right=0;align=left;spacingLeft=6;fontStyle=5;fontSize=20;" vertex="1" parent="wIJLVU86LyKN5zqBMjgO-2">
          <mxGeometry x="30" width="220" height="30" as="geometry">
            <mxRectangle width="220" height="30" as="alternateBounds" />
          </mxGeometry>
        </mxCell>
        <mxCell id="wIJLVU86LyKN5zqBMjgO-5" value="" style="shape=partialRectangle;collapsible=0;dropTarget=0;pointerEvents=0;fillColor=none;points=[[0,0.5],[1,0.5]];portConstraint=eastwest;top=0;left=0;right=0;bottom=0;fontSize=20;" vertex="1" parent="wIJLVU86LyKN5zqBMjgO-1">
          <mxGeometry y="60" width="250" height="110" as="geometry" />
        </mxCell>
        <mxCell id="wIJLVU86LyKN5zqBMjgO-6" value="" style="shape=partialRectangle;overflow=hidden;connectable=0;fillColor=none;top=0;left=0;bottom=0;right=0;fontSize=20;" vertex="1" parent="wIJLVU86LyKN5zqBMjgO-5">
          <mxGeometry width="30" height="110" as="geometry">
            <mxRectangle width="30" height="110" as="alternateBounds" />
          </mxGeometry>
        </mxCell>
        <mxCell id="wIJLVU86LyKN5zqBMjgO-7" value="产品名称&#xa;型号&#xa;规格&#xa;价格" style="shape=partialRectangle;overflow=hidden;connectable=0;fillColor=none;top=0;left=0;bottom=0;right=0;align=left;spacingLeft=6;fontSize=20;" vertex="1" parent="wIJLVU86LyKN5zqBMjgO-5">
          <mxGeometry x="30" width="220" height="110" as="geometry">
            <mxRectangle width="220" height="110" as="alternateBounds" />
          </mxGeometry>
        </mxCell>
        <mxCell id="wIJLVU86LyKN5zqBMjgO-10" value="" style="shape=link;html=1;rounded=0;exitX=1;exitY=0.5;exitDx=0;exitDy=0;entryX=0;entryY=0.5;entryDx=0;entryDy=0;fontSize=20;" edge="1" parent="1" source="C-vyLk0tnHw3VtMMgP7b-24" target="wIJLVU86LyKN5zqBMjgO-2">
          <mxGeometry relative="1" as="geometry">
            <mxPoint x="340" y="360" as="sourcePoint" />
            <mxPoint x="500" y="360" as="targetPoint" />
          </mxGeometry>
        </mxCell>
        <mxCell id="wIJLVU86LyKN5zqBMjgO-11" value="M" style="resizable=0;html=1;whiteSpace=wrap;align=left;verticalAlign=bottom;fontSize=20;" connectable="0" vertex="1" parent="wIJLVU86LyKN5zqBMjgO-10">
          <mxGeometry x="-1" relative="1" as="geometry" />
        </mxCell>
        <mxCell id="wIJLVU86LyKN5zqBMjgO-12" value="N" style="resizable=0;html=1;whiteSpace=wrap;align=right;verticalAlign=bottom;fontSize=20;" connectable="0" vertex="1" parent="wIJLVU86LyKN5zqBMjgO-10">
          <mxGeometry x="1" relative="1" as="geometry" />
        </mxCell>
        <mxCell id="wIJLVU86LyKN5zqBMjgO-13" value="仓库" style="shape=table;startSize=30;container=1;collapsible=1;childLayout=tableLayout;fixedRows=1;rowLines=0;fontStyle=1;align=center;resizeLast=1;fontSize=20;" vertex="1" parent="1">
          <mxGeometry x="1128" y="120" width="250" height="170" as="geometry" />
        </mxCell>
        <mxCell id="wIJLVU86LyKN5zqBMjgO-14" value="" style="shape=partialRectangle;collapsible=0;dropTarget=0;pointerEvents=0;fillColor=none;points=[[0,0.5],[1,0.5]];portConstraint=eastwest;top=0;left=0;right=0;bottom=1;fontSize=20;" vertex="1" parent="wIJLVU86LyKN5zqBMjgO-13">
          <mxGeometry y="30" width="250" height="30" as="geometry" />
        </mxCell>
        <mxCell id="wIJLVU86LyKN5zqBMjgO-15" value="PK" style="shape=partialRectangle;overflow=hidden;connectable=0;fillColor=none;top=0;left=0;bottom=0;right=0;fontStyle=1;fontSize=20;" vertex="1" parent="wIJLVU86LyKN5zqBMjgO-14">
          <mxGeometry width="30" height="30" as="geometry">
            <mxRectangle width="30" height="30" as="alternateBounds" />
          </mxGeometry>
        </mxCell>
        <mxCell id="wIJLVU86LyKN5zqBMjgO-16" value="仓库编号" style="shape=partialRectangle;overflow=hidden;connectable=0;fillColor=none;top=0;left=0;bottom=0;right=0;align=left;spacingLeft=6;fontStyle=5;fontSize=20;" vertex="1" parent="wIJLVU86LyKN5zqBMjgO-14">
          <mxGeometry x="30" width="220" height="30" as="geometry">
            <mxRectangle width="220" height="30" as="alternateBounds" />
          </mxGeometry>
        </mxCell>
        <mxCell id="wIJLVU86LyKN5zqBMjgO-17" value="" style="shape=partialRectangle;collapsible=0;dropTarget=0;pointerEvents=0;fillColor=none;points=[[0,0.5],[1,0.5]];portConstraint=eastwest;top=0;left=0;right=0;bottom=0;fontSize=20;" vertex="1" parent="wIJLVU86LyKN5zqBMjgO-13">
          <mxGeometry y="60" width="250" height="110" as="geometry" />
        </mxCell>
        <mxCell id="wIJLVU86LyKN5zqBMjgO-18" value="" style="shape=partialRectangle;overflow=hidden;connectable=0;fillColor=none;top=0;left=0;bottom=0;right=0;fontSize=20;" vertex="1" parent="wIJLVU86LyKN5zqBMjgO-17">
          <mxGeometry width="30" height="110" as="geometry">
            <mxRectangle width="30" height="110" as="alternateBounds" />
          </mxGeometry>
        </mxCell>
        <mxCell id="wIJLVU86LyKN5zqBMjgO-19" value="地点&#xa;单位成本&#xa;" style="shape=partialRectangle;overflow=hidden;connectable=0;fillColor=none;top=0;left=0;bottom=0;right=0;align=left;spacingLeft=6;fontSize=20;" vertex="1" parent="wIJLVU86LyKN5zqBMjgO-17">
          <mxGeometry x="30" width="220" height="110" as="geometry">
            <mxRectangle width="220" height="110" as="alternateBounds" />
          </mxGeometry>
        </mxCell>
        <mxCell id="wIJLVU86LyKN5zqBMjgO-20" value="" style="shape=link;html=1;rounded=0;exitX=1;exitY=0.5;exitDx=0;exitDy=0;entryX=0;entryY=0.5;entryDx=0;entryDy=0;fontSize=20;" edge="1" parent="1" source="wIJLVU86LyKN5zqBMjgO-9">
          <mxGeometry relative="1" as="geometry">
            <mxPoint x="870" y="163.17" as="sourcePoint" />
            <mxPoint x="1120" y="163.17" as="targetPoint" />
          </mxGeometry>
        </mxCell>
        <mxCell id="wIJLVU86LyKN5zqBMjgO-22" value="N" style="resizable=0;html=1;whiteSpace=wrap;align=right;verticalAlign=bottom;fontSize=20;" connectable="0" vertex="1" parent="wIJLVU86LyKN5zqBMjgO-20">
          <mxGeometry x="1" relative="1" as="geometry" />
        </mxCell>
        <mxCell id="wIJLVU86LyKN5zqBMjgO-23" value="供应" style="shape=rhombus;double=1;perimeter=rhombusPerimeter;whiteSpace=wrap;html=1;align=center;fontSize=20;" vertex="1" parent="1">
          <mxGeometry x="435" y="134" width="120" height="60" as="geometry" />
        </mxCell>
        <mxCell id="wIJLVU86LyKN5zqBMjgO-24" value="" style="shape=link;html=1;rounded=0;exitX=1;exitY=0.5;exitDx=0;exitDy=0;entryX=0;entryY=0.5;entryDx=0;entryDy=0;fontSize=20;" edge="1" parent="1" target="wIJLVU86LyKN5zqBMjgO-9">
          <mxGeometry relative="1" as="geometry">
            <mxPoint x="870" y="163.17" as="sourcePoint" />
            <mxPoint x="1120" y="163.17" as="targetPoint" />
          </mxGeometry>
        </mxCell>
        <mxCell id="wIJLVU86LyKN5zqBMjgO-25" value="M" style="resizable=0;html=1;whiteSpace=wrap;align=left;verticalAlign=bottom;fontSize=20;" connectable="0" vertex="1" parent="wIJLVU86LyKN5zqBMjgO-24">
          <mxGeometry x="-1" relative="1" as="geometry" />
        </mxCell>
        <mxCell id="wIJLVU86LyKN5zqBMjgO-9" value="存放" style="shape=rhombus;double=1;perimeter=rhombusPerimeter;whiteSpace=wrap;html=1;align=center;fontSize=20;" vertex="1" parent="1">
          <mxGeometry x="940" y="130" width="120" height="60" as="geometry" />
        </mxCell>
        <mxCell id="wIJLVU86LyKN5zqBMjgO-27" value="数量" style="ellipse;whiteSpace=wrap;html=1;align=center;fontSize=20;" vertex="1" parent="1">
          <mxGeometry x="950" y="220" width="100" height="40" as="geometry" />
        </mxCell>
        <mxCell id="wIJLVU86LyKN5zqBMjgO-28" value="入库时间" style="ellipse;whiteSpace=wrap;html=1;align=center;fontSize=20;" vertex="1" parent="1">
          <mxGeometry x="950" y="50" width="100" height="40" as="geometry" />
        </mxCell>
        <mxCell id="wIJLVU86LyKN5zqBMjgO-29" value="" style="endArrow=none;html=1;rounded=0;entryX=0.5;entryY=1;entryDx=0;entryDy=0;exitX=0.5;exitY=0;exitDx=0;exitDy=0;" edge="1" parent="1" source="wIJLVU86LyKN5zqBMjgO-27" target="wIJLVU86LyKN5zqBMjgO-9">
          <mxGeometry width="50" height="50" relative="1" as="geometry">
            <mxPoint x="1050" y="350" as="sourcePoint" />
            <mxPoint x="1100" y="300" as="targetPoint" />
          </mxGeometry>
        </mxCell>
        <mxCell id="wIJLVU86LyKN5zqBMjgO-30" value="" style="endArrow=none;html=1;rounded=0;entryX=0.5;entryY=1;entryDx=0;entryDy=0;exitX=0.5;exitY=0;exitDx=0;exitDy=0;" edge="1" parent="1" source="wIJLVU86LyKN5zqBMjgO-9" target="wIJLVU86LyKN5zqBMjgO-28">
          <mxGeometry width="50" height="50" relative="1" as="geometry">
            <mxPoint x="1050" y="350" as="sourcePoint" />
            <mxPoint x="1100" y="300" as="targetPoint" />
          </mxGeometry>
        </mxCell>
        <mxCell id="wIJLVU86LyKN5zqBMjgO-31" value="物流方式" style="shape=table;startSize=30;container=1;collapsible=1;childLayout=tableLayout;fixedRows=1;rowLines=0;fontStyle=1;align=center;resizeLast=1;fontSize=20;" vertex="1" parent="1">
          <mxGeometry x="312" y="484" width="250" height="170" as="geometry" />
        </mxCell>
        <mxCell id="wIJLVU86LyKN5zqBMjgO-32" value="" style="shape=partialRectangle;collapsible=0;dropTarget=0;pointerEvents=0;fillColor=none;points=[[0,0.5],[1,0.5]];portConstraint=eastwest;top=0;left=0;right=0;bottom=1;fontSize=20;" vertex="1" parent="wIJLVU86LyKN5zqBMjgO-31">
          <mxGeometry y="30" width="250" height="30" as="geometry" />
        </mxCell>
        <mxCell id="wIJLVU86LyKN5zqBMjgO-33" value="PK" style="shape=partialRectangle;overflow=hidden;connectable=0;fillColor=none;top=0;left=0;bottom=0;right=0;fontStyle=1;fontSize=20;" vertex="1" parent="wIJLVU86LyKN5zqBMjgO-32">
          <mxGeometry width="30" height="30" as="geometry">
            <mxRectangle width="30" height="30" as="alternateBounds" />
          </mxGeometry>
        </mxCell>
        <mxCell id="wIJLVU86LyKN5zqBMjgO-34" value="编号" style="shape=partialRectangle;overflow=hidden;connectable=0;fillColor=none;top=0;left=0;bottom=0;right=0;align=left;spacingLeft=6;fontStyle=5;fontSize=20;" vertex="1" parent="wIJLVU86LyKN5zqBMjgO-32">
          <mxGeometry x="30" width="220" height="30" as="geometry">
            <mxRectangle width="220" height="30" as="alternateBounds" />
          </mxGeometry>
        </mxCell>
        <mxCell id="wIJLVU86LyKN5zqBMjgO-35" value="" style="shape=partialRectangle;collapsible=0;dropTarget=0;pointerEvents=0;fillColor=none;points=[[0,0.5],[1,0.5]];portConstraint=eastwest;top=0;left=0;right=0;bottom=0;fontSize=20;" vertex="1" parent="wIJLVU86LyKN5zqBMjgO-31">
          <mxGeometry y="60" width="250" height="110" as="geometry" />
        </mxCell>
        <mxCell id="wIJLVU86LyKN5zqBMjgO-36" value="" style="shape=partialRectangle;overflow=hidden;connectable=0;fillColor=none;top=0;left=0;bottom=0;right=0;fontSize=20;" vertex="1" parent="wIJLVU86LyKN5zqBMjgO-35">
          <mxGeometry width="30" height="110" as="geometry">
            <mxRectangle width="30" height="110" as="alternateBounds" />
          </mxGeometry>
        </mxCell>
        <mxCell id="wIJLVU86LyKN5zqBMjgO-37" value="名称&#xa;单位距离成本&#xa;" style="shape=partialRectangle;overflow=hidden;connectable=0;fillColor=none;top=0;left=0;bottom=0;right=0;align=left;spacingLeft=6;fontSize=20;" vertex="1" parent="wIJLVU86LyKN5zqBMjgO-35">
          <mxGeometry x="30" width="220" height="110" as="geometry">
            <mxRectangle width="220" height="110" as="alternateBounds" />
          </mxGeometry>
        </mxCell>
        <mxCell id="wIJLVU86LyKN5zqBMjgO-38" value="买家" style="shape=table;startSize=30;container=1;collapsible=1;childLayout=tableLayout;fixedRows=1;rowLines=0;fontStyle=1;align=center;resizeLast=1;fontSize=20;" vertex="1" parent="1">
          <mxGeometry x="922" y="485" width="250" height="170" as="geometry" />
        </mxCell>
        <mxCell id="wIJLVU86LyKN5zqBMjgO-39" value="" style="shape=partialRectangle;collapsible=0;dropTarget=0;pointerEvents=0;fillColor=none;points=[[0,0.5],[1,0.5]];portConstraint=eastwest;top=0;left=0;right=0;bottom=1;fontSize=20;" vertex="1" parent="wIJLVU86LyKN5zqBMjgO-38">
          <mxGeometry y="30" width="250" height="30" as="geometry" />
        </mxCell>
        <mxCell id="wIJLVU86LyKN5zqBMjgO-40" value="PK" style="shape=partialRectangle;overflow=hidden;connectable=0;fillColor=none;top=0;left=0;bottom=0;right=0;fontStyle=1;fontSize=20;" vertex="1" parent="wIJLVU86LyKN5zqBMjgO-39">
          <mxGeometry width="30" height="30" as="geometry">
            <mxRectangle width="30" height="30" as="alternateBounds" />
          </mxGeometry>
        </mxCell>
        <mxCell id="wIJLVU86LyKN5zqBMjgO-41" value="买家编号" style="shape=partialRectangle;overflow=hidden;connectable=0;fillColor=none;top=0;left=0;bottom=0;right=0;align=left;spacingLeft=6;fontStyle=5;fontSize=20;" vertex="1" parent="wIJLVU86LyKN5zqBMjgO-39">
          <mxGeometry x="30" width="220" height="30" as="geometry">
            <mxRectangle width="220" height="30" as="alternateBounds" />
          </mxGeometry>
        </mxCell>
        <mxCell id="wIJLVU86LyKN5zqBMjgO-42" value="" style="shape=partialRectangle;collapsible=0;dropTarget=0;pointerEvents=0;fillColor=none;points=[[0,0.5],[1,0.5]];portConstraint=eastwest;top=0;left=0;right=0;bottom=0;fontSize=20;" vertex="1" parent="wIJLVU86LyKN5zqBMjgO-38">
          <mxGeometry y="60" width="250" height="110" as="geometry" />
        </mxCell>
        <mxCell id="wIJLVU86LyKN5zqBMjgO-43" value="" style="shape=partialRectangle;overflow=hidden;connectable=0;fillColor=none;top=0;left=0;bottom=0;right=0;fontSize=20;" vertex="1" parent="wIJLVU86LyKN5zqBMjgO-42">
          <mxGeometry width="30" height="110" as="geometry">
            <mxRectangle width="30" height="110" as="alternateBounds" />
          </mxGeometry>
        </mxCell>
        <mxCell id="wIJLVU86LyKN5zqBMjgO-44" value="姓名&#xa;联系方式&#xa;地址" style="shape=partialRectangle;overflow=hidden;connectable=0;fillColor=none;top=0;left=0;bottom=0;right=0;align=left;spacingLeft=6;fontSize=20;" vertex="1" parent="wIJLVU86LyKN5zqBMjgO-42">
          <mxGeometry x="30" width="220" height="110" as="geometry">
            <mxRectangle width="220" height="110" as="alternateBounds" />
          </mxGeometry>
        </mxCell>
        <mxCell id="wIJLVU86LyKN5zqBMjgO-45" value="购买" style="shape=rhombus;double=1;perimeter=rhombusPerimeter;whiteSpace=wrap;html=1;align=center;fontSize=20;" vertex="1" parent="1">
          <mxGeometry x="685" y="390" width="120" height="60" as="geometry" />
        </mxCell>
        <mxCell id="wIJLVU86LyKN5zqBMjgO-46" value="" style="endArrow=none;html=1;rounded=0;exitX=0.5;exitY=0;exitDx=0;exitDy=0;" edge="1" parent="1" source="wIJLVU86LyKN5zqBMjgO-45" target="wIJLVU86LyKN5zqBMjgO-5">
          <mxGeometry relative="1" as="geometry">
            <mxPoint x="450" y="440" as="sourcePoint" />
            <mxPoint x="610" y="440" as="targetPoint" />
          </mxGeometry>
        </mxCell>
        <mxCell id="wIJLVU86LyKN5zqBMjgO-47" value="M" style="resizable=0;html=1;whiteSpace=wrap;align=right;verticalAlign=bottom;" connectable="0" vertex="1" parent="wIJLVU86LyKN5zqBMjgO-46">
          <mxGeometry x="1" relative="1" as="geometry" />
        </mxCell>
        <mxCell id="wIJLVU86LyKN5zqBMjgO-50" value="" style="endArrow=none;html=1;rounded=0;exitX=1;exitY=0.5;exitDx=0;exitDy=0;entryX=0.5;entryY=0;entryDx=0;entryDy=0;" edge="1" parent="1" source="wIJLVU86LyKN5zqBMjgO-45" target="wIJLVU86LyKN5zqBMjgO-38">
          <mxGeometry relative="1" as="geometry">
            <mxPoint x="755" y="400" as="sourcePoint" />
            <mxPoint x="755" y="300" as="targetPoint" />
          </mxGeometry>
        </mxCell>
        <mxCell id="wIJLVU86LyKN5zqBMjgO-51" value="P" style="resizable=0;html=1;whiteSpace=wrap;align=right;verticalAlign=bottom;" connectable="0" vertex="1" parent="wIJLVU86LyKN5zqBMjgO-50">
          <mxGeometry x="1" relative="1" as="geometry" />
        </mxCell>
        <mxCell id="wIJLVU86LyKN5zqBMjgO-54" value="" style="endArrow=none;html=1;rounded=0;exitX=0;exitY=0.5;exitDx=0;exitDy=0;entryX=0.5;entryY=0;entryDx=0;entryDy=0;" edge="1" parent="1" source="wIJLVU86LyKN5zqBMjgO-45" target="wIJLVU86LyKN5zqBMjgO-31">
          <mxGeometry relative="1" as="geometry">
            <mxPoint x="450" y="440" as="sourcePoint" />
            <mxPoint x="610" y="440" as="targetPoint" />
          </mxGeometry>
        </mxCell>
        <mxCell id="wIJLVU86LyKN5zqBMjgO-55" value="N" style="resizable=0;html=1;whiteSpace=wrap;align=right;verticalAlign=bottom;" connectable="0" vertex="1" parent="wIJLVU86LyKN5zqBMjgO-54">
          <mxGeometry x="1" relative="1" as="geometry" />
        </mxCell>
        <mxCell id="wIJLVU86LyKN5zqBMjgO-56" value="距离" style="ellipse;whiteSpace=wrap;html=1;align=center;fontSize=20;" vertex="1" parent="1">
          <mxGeometry x="695" y="504" width="100" height="40" as="geometry" />
        </mxCell>
        <mxCell id="wIJLVU86LyKN5zqBMjgO-57" value="" style="endArrow=none;html=1;rounded=0;exitX=0.5;exitY=0;exitDx=0;exitDy=0;entryX=0.5;entryY=1;entryDx=0;entryDy=0;" edge="1" parent="1" source="wIJLVU86LyKN5zqBMjgO-56" target="wIJLVU86LyKN5zqBMjgO-45">
          <mxGeometry width="50" height="50" relative="1" as="geometry">
            <mxPoint x="550" y="350" as="sourcePoint" />
            <mxPoint x="600" y="300" as="targetPoint" />
          </mxGeometry>
        </mxCell>
      </root>
    </mxGraphModel>
  </diagram>
</mxfile>
